<svg width="80" height="80" viewBox="0 0 80 80" fill="none" xmlns="http://www.w3.org/2000/svg">
<circle cx="40" cy="40" r="40" fill="#00FFF0"/>
<path d="M57.1875 27.1094H50.5469L48.9648 22.6758C48.8555 22.3724 48.6552 22.1102 48.3913 21.9249C48.1274 21.7396 47.8127 21.6403 47.4902 21.6406H32.5098C31.8506 21.6406 31.2598 22.0557 31.04 22.6758L29.4531 27.1094H22.8125C20.6543 27.1094 18.9062 28.8574 18.9062 31.0156V53.2812C18.9062 55.4394 20.6543 57.1875 22.8125 57.1875H57.1875C59.3457 57.1875 61.0938 55.4394 61.0938 53.2812V31.0156C61.0938 28.8574 59.3457 27.1094 57.1875 27.1094ZM57.5781 53.2812C57.5781 53.4961 57.4023 53.6719 57.1875 53.6719H22.8125C22.5977 53.6719 22.4219 53.4961 22.4219 53.2812V31.0156C22.4219 30.8008 22.5977 30.625 22.8125 30.625H31.9287L32.7637 28.291L33.8818 25.1562H46.1133L47.2314 28.291L48.0664 30.625H57.1875C57.4023 30.625 57.5781 30.8008 57.5781 31.0156V53.2812ZM40 33.75C35.6836 33.75 32.1875 37.2461 32.1875 41.5625C32.1875 45.8789 35.6836 49.375 40 49.375C44.3164 49.375 47.8125 45.8789 47.8125 41.5625C47.8125 37.2461 44.3164 33.75 40 33.75ZM40 46.25C37.4121 46.25 35.3125 44.1504 35.3125 41.5625C35.3125 38.9746 37.4121 36.875 40 36.875C42.5879 36.875 44.6875 38.9746 44.6875 41.5625C44.6875 44.1504 42.5879 46.25 40 46.25Z" fill="white"/>
</svg>
