<svg width="50" height="51" viewBox="0 0 50 51" fill="none" xmlns="http://www.w3.org/2000/svg">
<path d="M17.8571 21.2766C17.8571 20.102 17.5084 19.0991 16.8108 18.268C16.1133 17.4368 15.2716 17.0213 14.2857 17.0213C13.2999 17.0213 12.4581 17.4368 11.7606 18.268C11.0631 19.0991 10.7143 20.102 10.7143 21.2766C10.7143 22.4512 11.0631 23.4541 11.7606 24.2852C12.4581 25.1164 13.2999 25.5319 14.2857 25.5319C15.2716 25.5319 16.1133 25.1164 16.8108 24.2852C17.5084 23.4541 17.8571 22.4512 17.8571 21.2766ZM28.5714 21.2766C28.5714 20.102 28.2227 19.0991 27.5251 18.268C26.8276 17.4368 25.9859 17.0213 25 17.0213C24.0141 17.0213 23.1724 17.4368 22.4749 18.268C21.7773 19.0991 21.4286 20.102 21.4286 21.2766C21.4286 22.4512 21.7773 23.4541 22.4749 24.2852C23.1724 25.1164 24.0141 25.5319 25 25.5319C25.9859 25.5319 26.8276 25.1164 27.5251 24.2852C28.2227 23.4541 28.5714 22.4512 28.5714 21.2766ZM39.2857 21.2766C39.2857 20.102 38.9369 19.0991 38.2394 18.268C37.5419 17.4368 36.7001 17.0213 35.7143 17.0213C34.7284 17.0213 33.8867 17.4368 33.1892 18.268C32.4916 19.0991 32.1429 20.102 32.1429 21.2766C32.1429 22.4512 32.4916 23.4541 33.1892 24.2852C33.8867 25.1164 34.7284 25.5319 35.7143 25.5319C36.7001 25.5319 37.5419 25.1164 38.2394 24.2852C38.9369 23.4541 39.2857 22.4512 39.2857 21.2766ZM50 21.2766C50 25.133 48.8839 28.6957 46.6518 31.9648C44.4196 35.2338 41.3876 37.8158 37.5558 39.7108C33.724 41.6057 29.5387 42.5532 25 42.5532C22.9539 42.5532 20.9914 42.3537 19.1127 41.9548C15.8947 45.789 11.849 48.3267 6.97545 49.5678C6.00818 49.7894 5.20833 49.9335 4.57589 50C4.35268 50.0222 4.14807 49.9557 3.96205 49.8005C3.77604 49.6454 3.65513 49.4459 3.59933 49.2021C3.52493 48.8697 3.71094 48.4597 4.15737 47.9721C4.25037 47.8613 4.46894 47.623 4.81306 47.2573C5.15718 46.8916 5.39435 46.6312 5.52455 46.4761C5.65476 46.3209 5.87333 46.0383 6.18025 45.6283C6.48717 45.2183 6.71038 44.8692 6.84989 44.5811C6.9894 44.293 7.18006 43.883 7.42187 43.3511C7.66369 42.8191 7.8497 42.2872 7.97991 41.7553C8.11012 41.2234 8.24498 40.5862 8.38449 39.8437C8.524 39.1013 8.64025 38.2979 8.73326 37.4335C6.01748 35.4388 3.883 33.0397 2.3298 30.236C0.7766 27.4324 0 24.4459 0 21.2766C0 17.4202 1.11607 13.8575 3.34821 10.5884C5.58036 7.31937 8.61235 4.73737 12.4442 2.84242C16.276 0.947473 20.4613 0 25 0C29.5387 0 33.724 0.947473 37.5558 2.84242C41.3876 4.73737 44.4196 7.31937 46.6518 10.5884C48.8839 13.8575 50 17.4202 50 21.2766Z" fill="#808080"/>
</svg>
