<svg width="50" height="50" viewBox="0 0 50 50" fill="none" xmlns="http://www.w3.org/2000/svg">
<path d="M31.25 39.5833C31.25 41.2409 30.5915 42.8306 29.4194 44.0027C28.2473 45.1749 26.6576 45.8333 25 45.8333C23.3424 45.8333 21.7527 45.1749 20.5806 44.0027C19.4085 42.8306 18.75 41.2409 18.75 39.5833M26.5021 10.4229L23.4479 10.4167C16.4812 10.4 10.4333 16.0604 10.3854 22.9167V30.8125C10.3854 32.4583 10.1771 34.0646 9.27915 35.4333L8.68124 36.3458C7.77082 37.7292 8.74999 39.5833 10.3854 39.5833H39.6146C41.25 39.5833 42.2271 37.7292 41.3187 36.3458L40.7208 35.4333C39.825 34.0646 39.6146 32.4562 39.6146 30.8104V22.9188C39.5312 16.0604 33.4687 10.4396 26.5021 10.4229V10.4229Z" stroke="#808080" stroke-width="2" stroke-linecap="round" stroke-linejoin="round"/>
<path d="M25 4.16667C26.105 4.16667 27.1649 4.60565 27.9463 5.38706C28.7277 6.16846 29.1666 7.22827 29.1666 8.33333V10.4167H20.8333V8.33333C20.8333 7.22827 21.2723 6.16846 22.0537 5.38706C22.8351 4.60565 23.8949 4.16667 25 4.16667Z" stroke="#808080" stroke-width="2" stroke-linecap="round" stroke-linejoin="round"/>
</svg>
