<svg width="50" height="50" viewBox="0 0 50 50" fill="none" xmlns="http://www.w3.org/2000/svg">
<path d="M48.3688 26.3196C49.4188 24.9727 50 23.3224 50 21.6054C50 18.8812 48.4313 16.3027 45.9062 14.8647C45.2562 14.4946 44.5161 14.2998 43.7625 14.3005H28.775L29.15 6.84387C29.2375 5.0419 28.5813 3.33095 27.3063 2.0265C26.6805 1.38354 25.9256 0.871983 25.0882 0.523435C24.2508 0.174887 23.3486 -0.00324604 22.4375 4.47771e-05C19.1875 4.47771e-05 16.3125 2.12357 15.45 5.16325L10.0812 24.0323H10.0625V50H39.5812C40.1562 50 40.7187 49.8908 41.2375 49.6724C44.2125 48.4407 46.1312 45.6195 46.1312 42.4888C46.1312 41.7243 46.0188 40.972 45.7938 40.2439C46.8438 38.897 47.425 37.2467 47.425 35.5297C47.425 34.7652 47.3125 34.0129 47.0875 33.2848C48.1375 31.9379 48.7188 30.2876 48.7188 28.5706C48.7062 27.8061 48.5938 27.0477 48.3688 26.3196V26.3196ZM0 25.9738V48.0585C0 49.1324 0.89375 50 2 50H6.0625V24.0323H2C0.89375 24.0323 0 24.8999 0 25.9738Z" fill="#808080"/>
</svg>
