<svg width="50" height="50" viewBox="0 0 50 50" fill="none" xmlns="http://www.w3.org/2000/svg">
<path d="M8.33331 25C8.33331 25.5525 8.55281 26.0824 8.94351 26.4731C9.33421 26.8638 9.86411 27.0833 10.4166 27.0833H26.2291L21.4375 31.8542C21.2422 32.0478 21.0872 32.2783 20.9815 32.5321C20.8757 32.786 20.8212 33.0583 20.8212 33.3333C20.8212 33.6084 20.8757 33.8807 20.9815 34.1345C21.0872 34.3884 21.2422 34.6188 21.4375 34.8125C21.6312 35.0078 21.8616 35.1628 22.1154 35.2685C22.3693 35.3743 22.6416 35.4288 22.9166 35.4288C23.1917 35.4288 23.464 35.3743 23.7178 35.2685C23.9717 35.1628 24.2021 35.0078 24.3958 34.8125L32.7291 26.4792C32.9188 26.281 33.0675 26.0474 33.1666 25.7917C33.375 25.2845 33.375 24.7156 33.1666 24.2083C33.0675 23.9526 32.9188 23.719 32.7291 23.5208L24.3958 15.1875C24.2016 14.9933 23.971 14.8392 23.7172 14.734C23.4634 14.6289 23.1914 14.5748 22.9166 14.5748C22.6419 14.5748 22.3699 14.6289 22.1161 14.734C21.8623 14.8392 21.6317 14.9933 21.4375 15.1875C21.2432 15.3818 21.0891 15.6124 20.984 15.8662C20.8789 16.1199 20.8248 16.392 20.8248 16.6667C20.8248 16.9414 20.8789 17.2134 20.984 17.4672C21.0891 17.721 21.2432 17.9516 21.4375 18.1458L26.2291 22.9167H10.4166C9.86411 22.9167 9.33421 23.1362 8.94351 23.5269C8.55281 23.9176 8.33331 24.4475 8.33331 25V25ZM35.4166 4.16667H14.5833C12.9257 4.16667 11.336 4.82515 10.1639 5.99725C8.99179 7.16936 8.33331 8.75907 8.33331 10.4167V16.6667C8.33331 17.2192 8.55281 17.7491 8.94351 18.1398C9.33421 18.5305 9.86411 18.75 10.4166 18.75C10.9692 18.75 11.4991 18.5305 11.8898 18.1398C12.2805 17.7491 12.5 17.2192 12.5 16.6667V10.4167C12.5 9.86414 12.7195 9.33423 13.1102 8.94353C13.5009 8.55283 14.0308 8.33334 14.5833 8.33334H35.4166C35.9692 8.33334 36.4991 8.55283 36.8898 8.94353C37.2805 9.33423 37.5 9.86414 37.5 10.4167V39.5833C37.5 40.1359 37.2805 40.6658 36.8898 41.0565C36.4991 41.4472 35.9692 41.6667 35.4166 41.6667H14.5833C14.0308 41.6667 13.5009 41.4472 13.1102 41.0565C12.7195 40.6658 12.5 40.1359 12.5 39.5833V33.3333C12.5 32.7808 12.2805 32.2509 11.8898 31.8602C11.4991 31.4695 10.9692 31.25 10.4166 31.25C9.86411 31.25 9.33421 31.4695 8.94351 31.8602C8.55281 32.2509 8.33331 32.7808 8.33331 33.3333V39.5833C8.33331 41.2409 8.99179 42.8307 10.1639 44.0028C11.336 45.1749 12.9257 45.8333 14.5833 45.8333H35.4166C37.0742 45.8333 38.664 45.1749 39.8361 44.0028C41.0082 42.8307 41.6666 41.2409 41.6666 39.5833V10.4167C41.6666 8.75907 41.0082 7.16936 39.8361 5.99725C38.664 4.82515 37.0742 4.16667 35.4166 4.16667Z" fill="#808080"/>
</svg>
