<svg width="130" height="70" viewBox="0 0 347 127" fill="none" xmlns="http://www.w3.org/2000/svg">
<path d="M90.3631 110.76C89.6165 110.867 88.8698 110.973 88.1231 111.08C87.4831 111.08 86.8431 111.08 86.2031 111.08C81.5098 111.08 77.9365 109.853 75.4831 107.4C73.1365 104.947 71.9631 101.587 71.9631 97.32V63.4C71.9631 55.72 69.3498 50.1733 64.1231 46.76C59.0031 43.24 51.3765 41.48 41.2431 41.48C33.7765 41.48 27.1631 42.6 21.4031 44.84C15.7498 46.9733 10.5765 50.3867 5.88313 55.08L2.20313 48.52C6.57646 43.8267 11.9631 40.2 18.3631 37.64C24.8698 35.08 32.4965 33.8 41.2431 33.8C54.2565 33.8 63.9098 36.3067 70.2031 41.32C76.4965 46.2267 79.6431 53.5867 79.6431 63.4V97.32C79.6431 99.6667 80.3898 101.373 81.8831 102.44C83.4831 103.4 85.4565 103.88 87.8031 103.88C88.5498 103.88 89.2431 103.88 89.8831 103.88C90.6298 103.773 91.3765 103.667 92.1231 103.56L90.3631 110.76ZM86.6831 125.96C84.0165 126.6 81.2965 126.92 78.5231 126.92C73.8298 126.92 69.5631 126.067 65.7231 124.36C61.8831 122.547 59.4831 120.04 58.5231 116.84C55.6431 120.467 51.4298 123.08 45.8831 124.68C40.4431 126.173 34.5765 126.92 28.2831 126.92C19.2165 126.92 12.2831 124.733 7.48313 120.36C2.78979 115.987 0.389792 110.013 0.283125 102.44V101.96C0.283125 93.5333 2.73646 86.8133 7.64313 81.8C12.6565 76.7867 20.5498 73.1067 31.3231 70.76C37.0831 69.5867 41.6698 68.2533 45.0831 66.76C48.6031 65.16 50.3631 63.4533 50.3631 61.64C50.3631 59.08 49.5098 57.4267 47.8031 56.68C46.2031 55.8267 43.2165 55.4 38.8431 55.4C36.4965 55.4 33.6698 55.9867 30.3631 57.16C27.0565 58.2267 23.8565 59.72 20.7631 61.64C17.6698 63.56 15.1631 65.8 13.2431 68.36L9.24313 61.32C13.6165 56.9467 18.5765 53.5867 24.1231 51.24C29.6698 48.8933 34.5765 47.72 38.8431 47.72C46.7365 47.72 51.9098 48.8933 54.3631 51.24C56.8165 53.48 58.0431 56.9467 58.0431 61.64C58.0431 64.3067 55.9098 67.2933 51.6431 70.6C47.3765 73.9067 41.1365 76.4667 32.9231 78.28C24.4965 79.9867 18.2031 82.7067 14.0431 86.44C9.98979 90.1733 7.96313 95.3467 7.96313 101.96V102.28C8.06979 107.72 9.88313 111.933 13.4031 114.92C16.9231 117.907 21.8831 119.4 28.2831 119.4C32.4431 119.4 36.3365 119.187 39.9631 118.76C43.6965 118.227 47.2698 117 50.6831 115.08C54.2031 113.053 57.6698 109.853 61.0831 105.48C62.2565 111.347 64.4965 115.24 67.8031 117.16C71.2165 118.973 74.8431 119.88 78.6831 119.88C80.3898 119.88 82.0431 119.773 83.6431 119.56C85.3498 119.347 86.9498 119.133 88.4431 118.92L86.6831 125.96ZM58.8431 96.52C57.9898 100.04 56.2831 103.133 53.7231 105.8C51.2698 108.36 48.4431 110.333 45.2431 111.72C42.1498 113.107 39.1098 113.8 36.1231 113.8C30.4698 113.8 26.3098 112.467 23.6431 109.8C20.9765 107.133 19.6431 103.667 19.6431 99.4C19.6431 94.0667 21.0298 90.0667 23.8031 87.4C26.6831 84.7333 30.8431 82.76 36.2831 81.48C38.8431 80.84 42.0965 79.88 46.0431 78.6C49.9898 77.2133 54.2565 74.28 58.8431 69.8V96.52ZM51.1631 82.6C48.6031 84.84 44.3365 86.76 38.3631 88.36C34.4165 89.4267 31.5898 90.7067 29.8831 92.2C28.1765 93.5867 27.3231 95.9867 27.3231 99.4C27.3231 103.88 30.2565 106.12 36.1231 106.12C39.1098 106.12 42.1498 105.213 45.2431 103.4C48.4431 101.48 50.4165 98.9733 51.1631 95.88V82.6ZM124.488 0.199995H132.168V25.16H124.488V0.199995ZM103.208 0.199995H110.888V25.16H103.208V0.199995ZM124.168 35.88H131.848V125H124.168V35.88ZM103.688 35.88H111.368V125H103.688V35.88ZM153.989 0.199995H161.669V125H153.989V0.199995ZM169.989 97.96C173.189 104.147 176.763 108.787 180.709 111.88C184.656 114.867 188.763 116.893 193.029 117.96C197.296 118.92 201.349 119.4 205.189 119.4C215.003 119.4 222.629 116.04 228.069 109.32C233.616 102.6 236.389 92.9467 236.389 80.36C236.389 67.88 233.616 58.28 228.069 51.56C222.523 44.84 214.843 41.48 205.029 41.48C202.576 41.48 199.643 41.6933 196.229 42.12C192.923 42.5467 189.349 43.8267 185.509 45.96C181.776 48.0933 178.043 51.6667 174.309 56.68V0.199995H181.989V42.28C184.016 39.5067 187.056 37.4267 191.109 36.04C195.269 34.5467 199.909 33.8 205.029 33.8C216.869 33.8 226.309 37.7467 233.349 45.64C240.496 53.5333 244.069 65.1067 244.069 80.36C244.069 90.6 242.416 99.1867 239.109 106.12C235.803 112.947 231.216 118.12 225.349 121.64C219.589 125.16 212.869 126.92 205.189 126.92C202.096 126.92 198.736 126.653 195.109 126.12C191.483 125.587 188.123 124.627 185.029 123.24C181.936 121.853 179.483 119.933 177.669 117.48V125H169.989V97.96ZM173.829 75.4C173.829 70.8133 174.896 66.6 177.029 62.76C179.163 58.92 181.989 55.88 185.509 53.64C189.136 51.2933 193.136 50.12 197.509 50.12C205.189 50.12 211.376 52.5733 216.069 57.48C220.869 62.28 223.269 69.9067 223.269 80.36C223.269 87.5067 222.096 93.3733 219.749 97.96C217.509 102.44 214.416 105.8 210.469 108.04C206.629 110.173 202.363 111.24 197.669 111.24C192.443 111.24 187.803 109.64 183.749 106.44C179.696 103.24 176.389 99.1867 173.829 94.28V75.4ZM181.509 92.52C182.896 95.72 184.976 98.3867 187.749 100.52C190.629 102.547 193.936 103.56 197.669 103.56C202.896 103.56 207.163 101.747 210.469 98.12C213.883 94.3867 215.589 88.4667 215.589 80.36C215.589 72.7867 213.989 67.1333 210.789 63.4C207.589 59.6667 203.163 57.8 197.509 57.8C193.029 57.8 189.243 59.5067 186.149 62.92C183.056 66.3333 181.509 70.4933 181.509 75.4V92.52ZM326.621 35.88V92.2C324.914 98.3867 321.767 103.133 317.181 106.44C312.594 109.64 307.421 111.24 301.661 111.24C295.794 111.24 290.941 109.427 287.101 105.8C283.261 102.067 281.341 96.68 281.341 89.64V35.88H289.021V89.64C289.021 94.12 290.194 97.5867 292.541 100.04C294.887 102.387 297.927 103.56 301.661 103.56C305.714 103.56 309.341 102.493 312.541 100.36C315.741 98.2267 317.874 95.1867 318.941 91.24V35.88H326.621ZM339.261 35.88H346.941V125H339.261V35.88ZM321.501 116.84C319.261 120.04 315.794 122.547 311.101 124.36C306.514 126.067 300.594 126.92 293.341 126.92C283.421 126.92 275.527 123.933 269.661 117.96C263.794 111.987 260.861 104.147 260.861 94.44V35.88H268.541V94.44C268.541 101.907 270.781 107.933 275.261 112.52C279.741 117.107 285.767 119.4 293.341 119.4C297.394 119.4 301.447 119.027 305.501 118.28C309.554 117.533 313.554 115.827 317.501 113.16C321.447 110.387 325.341 106.12 329.181 100.36V125H321.501V116.84Z" fill="black"/>
</svg>
