<svg width="50" height="50" viewBox="0 0 50 50" fill="none" xmlns="http://www.w3.org/2000/svg">
<path d="M44.2854 22.8375C45.2729 24.1292 45.2729 25.8729 44.2854 27.1625C41.175 31.2229 33.7125 39.5833 25 39.5833C16.2875 39.5833 8.825 31.2229 5.71459 27.1625C5.23413 26.544 4.97333 25.7832 4.97333 25C4.97333 24.2168 5.23413 23.456 5.71459 22.8375C8.825 18.7771 16.2875 10.4167 25 10.4167C33.7125 10.4167 41.175 18.7771 44.2854 22.8375V22.8375Z" stroke="#808080" stroke-width="2" stroke-linecap="round" stroke-linejoin="round"/>
<path d="M25 31.25C28.4518 31.25 31.25 28.4518 31.25 25C31.25 21.5482 28.4518 18.75 25 18.75C21.5482 18.75 18.75 21.5482 18.75 25C18.75 28.4518 21.5482 31.25 25 31.25Z" stroke="#808080" stroke-width="2" stroke-linecap="round" stroke-linejoin="round"/>
</svg>
