<svg width="50" height="50" viewBox="0 0 50 50" fill="none" xmlns="http://www.w3.org/2000/svg">
<path d="M14.3188 35.6854C10.475 32.9562 7.43335 29.4062 5.7146 27.1646C5.23398 26.5458 4.97308 25.7846 4.97308 25.001C4.97308 24.2175 5.23398 23.4563 5.7146 22.8375C8.82501 18.7771 16.2875 10.4167 25 10.4167C28.9083 10.4167 32.5625 12.0979 35.6875 14.3208" stroke="#808080" stroke-width="2" stroke-linecap="round" stroke-linejoin="round"/>
<path d="M20.8334 38.9667C22.1859 39.3693 23.5889 39.5769 25 39.5833C33.7125 39.5833 41.175 31.2229 44.2855 27.1625C44.7659 26.5431 45.0266 25.7814 45.0262 24.9976C45.0258 24.2137 44.7645 23.4522 44.2834 22.8333C43.1902 21.4073 42.0175 20.044 40.7709 18.75M29.4375 20.5979C28.859 20.0097 28.1697 19.5419 27.4094 19.2214C26.6492 18.901 25.833 18.7342 25.0079 18.7307C24.1829 18.7273 23.3654 18.8872 22.6024 19.2013C21.8395 19.5154 21.1463 19.9774 20.5629 20.5607C19.9794 21.1441 19.5172 21.8371 19.2029 22.6C18.8887 23.3628 18.7286 24.1803 18.7318 25.0054C18.7351 25.8304 18.9017 26.6466 19.2219 27.407C19.5422 28.1673 20.0099 28.8567 20.598 29.4354L29.4375 20.5979ZM8.33337 41.6667L41.6667 8.33333L8.33337 41.6667Z" stroke="#808080" stroke-width="2" stroke-linecap="round" stroke-linejoin="round"/>
</svg>
