<svg width="50" height="50" viewBox="0 0 50 50" fill="none" xmlns="http://www.w3.org/2000/svg">
<path d="M48.3688 26.3196C49.4188 24.9727 50 23.3224 50 21.6054C50 18.8812 48.4313 16.3027 45.9062 14.8647C45.2562 14.4946 44.5161 14.2998 43.7625 14.3005H28.775L29.15 6.84387C29.2375 5.0419 28.5813 3.33095 27.3063 2.0265C26.6805 1.38354 25.9256 0.871983 25.0882 0.523435C24.2508 0.174887 23.3486 -0.00324604 22.4375 4.47771e-05C19.1875 4.47771e-05 16.3125 2.12357 15.45 5.16325L10.0812 24.0323H2C0.89375 24.0323 0 24.8999 0 25.9738V48.0585C0 49.1324 0.89375 50 2 50H39.5812C40.1562 50 40.7187 49.8908 41.2375 49.6724C44.2125 48.4407 46.1312 45.6195 46.1312 42.4888C46.1312 41.7243 46.0188 40.972 45.7938 40.2439C46.8438 38.897 47.425 37.2467 47.425 35.5297C47.425 34.7652 47.3125 34.0129 47.0875 33.2848C48.1375 31.9379 48.7188 30.2876 48.7188 28.5706C48.7062 27.8061 48.5938 27.0477 48.3688 26.3196V26.3196ZM4.5 45.6316V28.4007H9.5625V45.6316H4.5ZM44.275 24.2143L42.9062 25.3671L43.775 26.9082C44.0612 27.4158 44.2096 27.9858 44.2062 28.5645C44.2062 29.5656 43.7563 30.5182 42.9813 31.1734L41.6125 32.3262L42.4813 33.8673C42.7675 34.3749 42.9159 34.9449 42.9125 35.5236C42.9125 36.5247 42.4625 37.4773 41.6875 38.1325L40.3187 39.2853L41.1875 40.8264C41.4737 41.334 41.6221 41.904 41.6188 42.4827C41.6188 43.8418 40.7937 45.0674 39.5187 45.6255H13.5625V28.2065L19.7812 6.33422C19.9416 5.77361 20.2858 5.27902 20.7618 4.92539C21.2377 4.57176 21.8194 4.37837 22.4188 4.37451C22.8938 4.37451 23.3625 4.50799 23.7375 4.78101C24.3562 5.22999 24.6875 5.90952 24.65 6.63152L24.05 18.6689H43.7C44.8125 19.3302 45.5 20.4466 45.5 21.6054C45.5 22.6065 45.05 23.553 44.275 24.2143Z" fill="#808080"/>
</svg>
